<svg version="1.1" id="Layer_1" xmlns="http://www.w3.org/2000/svg" xmlns:xlink="http://www.w3.org/1999/xlink" x="0px" y="0px" viewBox="0 0 200 72" style="enable-background:new 0 0 200 72;" xml:space="preserve">
 <style type="text/css">
  .st0{fill:#FFCC33;}
	.st1{fill:#FF0033;}
 </style>
 <g>
  <path d="M83.6,12.2h9.9c0.1,0,0.1,0.1,0.1,0.1V55c0,0.1-0.1,0.1-0.1,0.1h-9.9c-0.1,0-0.1-0.1-0.1-0.1V12.4
		C83.5,12.3,83.6,12.2,83.6,12.2z">
  </path>
  <path d="M80.4,12.2c0.1,0,0.1,0.1,0.1,0.2l-13,21.1c-0.1,0.2-0.1,0.4,0,0.6l13,20.9c0.1,0.1,0,0.2,0,0.2H68.3
		c-0.1,0-0.2-0.1-0.3-0.2l-7.9-12.9c-0.1-0.1-0.2-0.1-0.2,0L52.5,55c-0.1,0.1-0.2,0.2-0.3,0.2H40.7c-0.1,0-0.2,0-0.1-0.2l13.5-22
		c0.1-0.2,0.1-0.5,0-0.7L42.3,12.4c0-0.1,0-0.2,0.1-0.2h11.8c0.1,0,0.2,0.1,0.2,0.2l7.1,12c0.1,0.1,0.2,0.1,0.3,0l7.3-12
		c0.1-0.1,0.1-0.2,0.3-0.2H80.4z">
  </path>
  <polygon class="st0" points="142.7,34.1 164.6,0 200,55.2 175.9,55.2 162.4,34.1 	">
  </polygon>
  <path d="M37,12.2h-9.2c-0.1,0-0.2,0.1-0.3,0.2L0,55.1v0.1h11.2c0.1,0,0.2,0,0.2-0.1l3.7-5.8c0.1-0.1,0.1-0.1,0.2-0.1H27
		c0.1,0,0.1,0.1,0.1,0.1V55c0,0.1,0,0.2,0.1,0.2H37c0.1,0,0.1-0.1,0.1-0.2V12.4C37.1,12.3,37.1,12.2,37,12.2z M27.3,40.7
		C27.3,40.8,27.3,40.8,27.3,40.7L20,40.8c0,0-0.1,0,0-0.1l7.7-12.3c0-0.1,0.1,0,0.1,0L27.3,40.7z">
  </path>
  <path d="M99.4,55.2c-0.1,0,12.9,0,12.9,0c1.6,0,3.3-0.3,4.9-0.8c6-1.9,9.1-7.8,9.1-12.9c0-8.1-6.3-10.9-13.8-14.1
		c-1.3-0.6-2.9-1.3-2.9-3.1c0-1.8,1.7-2.7,3.6-2.7h10.2c0.1,0,0.1-0.1,0.1-0.1v-9.3c0-0.1-0.1-0.1-0.1-0.1h-10.7
		c-8.9,0-14.2,5.3-14.2,12.7c0,6.5,4.1,9.6,10.1,12c4.2,1.7,6.9,2.4,6.9,5.8c0,1.8-1.1,3.5-3.3,3.5c0,0-12.8,0-12.9,0
		s-0.1,0.1-0.1,0.1c0-0.1,0,8.9,0,9C99.3,55.2,99.5,55.2,99.4,55.2z">
  </path>
  <path d="M131.9,12c-2,0-3.6,1.6-3.6,3.6s1.6,3.6,3.6,3.6s3.6-1.6,3.6-3.6S133.9,12,131.9,12z M131.9,18.8c-1.8,0-3.2-1.5-3.2-3.2
		c0-1.8,1.5-3.2,3.2-3.2c1.8,0,3.2,1.5,3.2,3.2C135.1,17.3,133.7,18.8,131.9,18.8z">
  </path>
  <path d="M133.6,17.6l-0.8-1.9c0.5-0.1,0.8-0.6,0.8-1.1c0-0.4-0.2-0.7-0.4-0.9c-0.3-0.2-0.6-0.3-1-0.3h-1.6v4.2h0.5v-1.8h1.2
		l0.8,1.8H133.6z M131.1,15.4v-1.5h1c0.2,0,0.4,0,0.6,0.1c0.2,0.1,0.3,0.3,0.3,0.6c0,0.2-0.1,0.4-0.2,0.5c-0.2,0.2-0.4,0.2-0.7,0.2
		L131.1,15.4L131.1,15.4z">
  </path>
  <path d="M8.6,71.2C7.4,71.8,6.5,72,5.3,72c-3.3,0-5-2.1-5-4.3c0-2.2,1.9-4.3,5.2-4.3c1.2,0,2.3,0.2,3.1,0.7V66
		c-0.9-0.5-1.9-0.9-3-0.9c-1.8,0-3.1,1.1-3.1,2.5c0,1.5,1.3,2.6,3.1,2.6c1.1,0,1.9-0.3,3.1-0.9v1.9H8.6z">
  </path>
  <path d="M21,72c-3.2,0-4.9-2.2-4.9-4.3c0-2,1.7-4.3,4.9-4.3s4.9,2.3,4.9,4.3C25.9,69.9,24.1,72,21,72z M21,65.2
		c-1.6,0-2.7,1-2.7,2.5s1.1,2.5,2.7,2.5s2.7-1,2.7-2.5S22.6,65.2,21,65.2z">
  </path>
  <path d="M40.7,63.6h1.9V72h-2.1v-5.2l-2.3,2.6h-0.3l-2.3-2.6V72h-2.1v-8.4h1.9l2.8,3.1L40.7,63.6z">
  </path>
  <path d="M58.4,63.6h1.9V72h-2.1v-5.2l-2.3,2.6h-0.3l-2.3-2.6V72H51v-8.4h1.9l2.8,3.1L58.4,63.6z">
  </path>
  <path d="M76.6,63.6v4.7c0,2.8-1.9,3.7-4.3,3.7c-2.5,0-4.3-1.1-4.3-3.7v-4.8h2.1v4.8c0,1.2,0.9,1.9,2.1,1.9c1.1,0,2.2-0.6,2.2-2.1
		v-4.7h2.2V63.6z">
  </path>
  <path d="M93.2,71.9h-1.8l-4.8-5.4v5.4h-2.1v-8.4h2l4.6,5.1v-5.1h2.1C93.2,63.5,93.2,71.9,93.2,71.9z">
  </path>
  <path d="M103.5,71.9h-2.1v-8.4h2.1V71.9z">
  </path>
  <path d="M118.9,71.2c-1.2,0.6-2.1,0.8-3.4,0.8c-3.3,0-5-2.1-5-4.3c0-2.2,1.9-4.3,5.2-4.3c1.2,0,2.3,0.2,3.1,0.7V66
		c-0.9-0.5-1.9-0.9-3-0.9c-1.8,0-3.1,1.1-3.1,2.5c0,1.5,1.3,2.6,3.1,2.6c1.1,0,1.9-0.3,3.1-0.9C118.9,69.3,118.9,71.2,118.9,71.2z">
  </path>
  <path d="M134.3,71.9H132l-0.7-1.7h-3.8l-0.6,1.7h-2.3l3.5-8.4h2.5L134.3,71.9z M129.3,65.5l-1.3,3.2h2.6L129.3,65.5z">
  </path>
  <path d="M146.9,65.1h-3.1v6.8h-2.1v-6.8h-3.1v-1.5h8.4L146.9,65.1L146.9,65.1z">
  </path>
  <path d="M155.6,71.9h-2.1v-8.4h2.1V71.9z">
  </path>
  <path d="M167,72c-3.2,0-4.9-2.2-4.9-4.3c0-2,1.7-4.3,4.9-4.3s4.9,2.3,4.9,4.3C171.9,69.9,170.1,72,167,72z M167,65.2
		c-1.6,0-2.7,1-2.7,2.5s1.1,2.5,2.7,2.5c1.6,0,2.7-1,2.7-2.5S168.6,65.2,167,65.2z">
  </path>
  <path d="M187,71.9h-1.8l-4.8-5.4v5.4h-2.1v-8.4h2l4.6,5.1v-5.1h2.1V71.9z">
  </path>
  <path d="M199.5,65.7c-1.2-0.5-2-0.7-2.7-0.7c-0.8,0-1.3,0.3-1.3,0.7c0,1.3,4.4,0.9,4.4,3.8c0,1.6-1.4,2.5-3.3,2.5
		c-1.5,0-2.2-0.4-3.1-0.8v-1.8c1.2,0.8,2,1.1,2.9,1.1c0.8,0,1.3-0.3,1.3-0.8c0-1.4-4.4-0.9-4.4-3.9c0-1.4,1.3-2.4,3.3-2.4
		c1,0,1.8,0.2,2.9,0.6L199.5,65.7L199.5,65.7z">
  </path>
  <polygon points="162.4,34.1 158.8,34.1 172.4,55.2 175.9,55.2 	">
  </polygon>
  <polygon class="st1" points="158.8,34.1 172.4,55.2 129.2,55.2 142.7,34.1 	">
  </polygon>
 </g>
</svg>